Coordinates
version=1
nRows=8
nColumns=63
inDegrees=yes

Units are S.I. units (second, meters, Newtons, ...)
If the header above contains a line with 'inDegrees', this indicates whether rotational values are in degrees (yes) or radians (no).

endheader
time	pelvis_tilt	pelvis_list	pelvis_rotation	pelvis_tx	pelvis_ty	pelvis_tz	hip_flexion_r	hip_adduction_r	hip_rotation_r	knee_angle_r	knee_angle_r_beta	ankle_angle_r	subtalar_angle_r	mtp_angle_r	hip_flexion_l	hip_adduction_l	hip_rotation_l	knee_angle_l	knee_angle_l_beta	ankle_angle_l	subtalar_angle_l	mtp_angle_l	L5_S1_Flex_Ext	L5_S1_Lat_Bending	L5_S1_axial_rotation	L4_L5_Flex_Ext	L4_L5_Lat_Bending	L4_L5_axial_rotation	L3_L4_Flex_Ext	L3_L4_Lat_Bending	L3_L4_axial_rotation	L2_L3_Flex_Ext	L2_L3_Lat_Bending	L2_L3_axial_rotation	L1_L2_Flex_Ext	L1_L2_Lat_Bending	L1_L2_axial_rotation	L1_T12_Flex_Ext	L1_T12_Lat_Bending	L1_T12_axial_rotation	Abs_r3	Abs_r2	Abs_r1	Abs_t1	Abs_t2	neck_flexion	neck_bending	neck_rotation	arm_flex_r	arm_add_r	arm_rot_r	elbow_flex_r	pro_sup_r	wrist_flex_r	wrist_dev_r	arm_flex_l	arm_add_l	arm_rot_l	elbow_flex_l	pro_sup_l	wrist_flex_l	wrist_dev_l
      0.00000000	      2.72697113	     -2.95366583	     89.27059421	      0.24858939	      1.02440688	      0.30436071	      0.80510656	     -0.77072876	    -13.44910810	     13.70950657	      0.23927603	     29.61492931	     18.32745913	      0.00000000	     -4.56851321	     -0.45261871	      9.96763352	      1.35630719	      0.02367203	     21.24461089	    -16.13113863	      0.00000000	      0.15548167	      0.41152731	      1.46014694	      0.28874501	      0.54733132	      1.55140612	      0.25544084	      1.00058749	      1.55140612	      0.17770000	      1.00058749	      1.27762857	      0.14438028	      0.83918648	      1.18636939	      0.08884223	      0.63745580	      1.09511021	      1.11059004	      4.65527919	      8.12089924	      0.00000000	      0.00000000	     19.79593587	    -13.25719158	     -9.10314779	      4.75290202	    -16.71311325	     53.32177124	     58.06689600	     86.13698101	     12.34847135	     14.34786509	     24.91274542	    -14.53189709	     95.92906923	     62.92075137	     19.83574207	    -19.65354437	     -8.90905409
      0.01666667	      3.43973023	     -2.99916125	     90.42328372	      0.24611796	      1.02353070	      0.30466778	      0.76812408	     -0.06391834	    -14.54302388	     13.59427043	      0.23726478	     30.15771891	     18.44197390	      0.00000000	     -4.28006603	     -1.30834776	     10.31113336	      1.83790316	      0.03207746	     21.68656512	    -15.36764205	      0.00000000	      0.16648063	      0.50349898	      1.30188731	      0.30917117	      0.66965365	      1.38325527	      0.27351102	      1.22420743	      1.38325527	      0.19027071	      1.22420743	      1.13915140	      0.15459391	      1.02673512	      1.05778344	      0.09512703	      0.77991992	      0.97641548	      1.18915446	      5.69568119	      7.24070665	      0.00000000	      0.00000000	     21.35451459	    -13.31683641	     -9.47574869	      4.04828421	    -17.22295903	     53.13071017	     58.53906618	     82.55176319	     10.48794233	     14.91107949	     24.71079233	    -13.88191699	     95.74227307	     62.38920031	     20.09951923	    -19.28230041	     -9.29314313
      0.03333333	      4.01041007	     -3.04256731	     90.99774234	      0.24486091	      1.02293693	      0.30523462	      0.90825696	      0.52497935	    -14.80995845	     13.63030635	      0.23789372	     30.62062282	     18.40480026	      0.00000000	     -4.06369710	     -1.98827026	     10.55743440	      2.19926987	      0.03838450	     22.00589072	    -15.04562109	      0.00000000	      0.17020517	      0.57250761	      1.19856874	      0.31608803	      0.76143512	      1.27347929	      0.27963008	      1.39199500	      1.27347929	      0.19452749	      1.39199500	      1.04874765	      0.15805253	      1.16745751	      0.97383710	      0.09725524	      0.88681429	      0.89892656	      1.21575854	      6.47632057	      6.66607979	      0.00000000	      0.00000000	     22.53727338	    -13.04889279	     -9.56209928	      3.68121955	    -17.41537801	     52.81653565	     58.59192378	     81.67330382	     10.11972633	     14.59415622	     24.70275556	    -13.54989440	     95.64502788	     62.26079752	     20.04057651	    -19.24533288	     -9.29543962
      0.05000000	      4.38895333	     -3.04659752	     92.13668196	      0.24286129	      1.02270979	      0.30611933	      0.84510725	      0.92827180	    -15.89266796	     13.35061018	      0.23301210	     30.94016772	     18.54681659	      0.00000000	     -3.35156973	     -2.52031469	      8.17122435	      3.45657396	      0.06032860	     23.91289599	     -9.98695550	      0.00000000	      0.17433894	      0.63240092	      0.89892160	      0.32376485	      0.84109323	      0.95510420	      0.28642145	      1.53761960	      0.95510420	      0.19925198	      1.53761960	      0.78655640	      0.16189114	      1.28959196	      0.73037380	      0.09961727	      0.97958903	      0.67419120	      1.24528564	      7.15384572	      4.99953226	      0.00000000	      0.00000000	     23.08769268	    -12.96947916	     -8.20422354	      4.42595123	    -17.89243005	     55.34009683	     58.58349115	     73.10975587	      7.61331324	     15.35256723	     24.28585947	    -13.55555820	     94.53065914	     62.04268114	     20.78110522	    -18.37535871	     -8.72443750
      0.06666667	      4.73985410	     -3.03886970	     92.70733514	      0.24185385	      1.02266514	      0.30717995	      0.90203004	      1.32209293	    -16.22826084	     13.21367744	      0.23062218	     31.18802290	     18.56681737	      0.00000000	     -2.91054620	     -3.00089386	      6.80281482	      4.23128137	      0.07384979	     24.97987571	     -7.06682581	      0.00000000	      0.16986514	      0.68635402	      0.73323273	      0.31545655	      0.91285085	      0.77905978	      0.27907144	      1.66880117	      0.77905978	      0.19413887	      1.66880117	      0.64157864	      0.15773677	      1.39961312	      0.59575160	      0.09706094	      1.06316238	      0.54992455	      1.21332969	      7.76417397	      4.07802049	      0.00000000	      0.00000000	     23.38966129	    -12.92422388	     -7.04165072	      4.90754630	    -18.15147003	     56.43668077	     58.53175218	     70.39705548	      6.94870027	     15.30677015	     24.08337782	    -13.57023929	     93.49693510	     61.96647394	     21.95933122	    -17.78399778	     -7.46900393
      0.08333333	      4.94299817	     -3.04155161	     93.43689895	      0.24112563	      1.02268071	      0.30861083	      1.01132326	      1.55544820	    -16.82294376	     13.18611039	      0.23014104	     31.26472332	     18.58931939	      0.00000000	     -1.91807833	     -3.61606532	      0.40239591	      6.04954790	      0.10558453	     27.87631640	      2.95442833	      0.00000000	      0.15786425	      0.71324863	      0.47438314	      0.29316971	      0.94862068	      0.50403209	      0.25935518	      1.73419272	      0.50403209	      0.18042306	      1.73419272	      0.41508525	      0.14659275	      1.45445661	      0.38543630	      0.09020363	      1.10482213	      0.35578736	      1.12760858	      8.06841116	      2.63837672	      0.00000000	      0.00000000	     23.60214924	    -12.54259799	     -5.63566405	      5.82633874	    -18.14850930	     58.09702887	     58.23145676	     67.93678723	      6.44709547	     14.98372591	     23.92749772	    -13.91809347	     92.69612382	     62.49493727	     21.54980208	    -19.13387831	     -7.26446065
      0.10000000	      5.09973713	     -3.05362923	     93.49509101	      0.24105565	      1.02274340	      0.30953112	      1.12537993	      1.72631231	    -16.75182309	     13.20800681	      0.23052321	     31.19729191	     18.53289686	      0.00000000	     -1.50599421	     -3.99977863	     -2.51035550	      6.87448830	      0.11998246	     28.93855178	      7.10418249	      0.00000000	      0.15669419	      0.74507429	      0.36606639	      0.29099678	      0.99094881	      0.38894554	      0.25743288	      1.81157364	      0.38894554	      0.17908579	      1.81157364	      0.32030809	      0.14550622	      1.51935550	      0.29742895	      0.08953506	      1.15412008	      0.27454980	      1.11925093	      8.42842943	      2.03595146	      0.00000000	      0.00000000	     23.62245303	    -12.27401196	     -3.87332849	      6.45256411	    -18.23938739	     59.14116465	     58.16517377	     67.23978726	      6.34988346	     15.08680705	     23.35561064	    -14.17913738	     91.09154779	     62.76167426	     22.61771249	    -19.97291686	     -6.56419789
      0.11666667	      5.09415199	     -3.05357662	     93.82958004	      0.24074222	      1.02275294	      0.31032275	      1.17631777	      1.69687133	    -17.23546790	     13.31467803	      0.23238497	     31.08156260	     18.56653692	      0.00000000	     -1.18648830	     -4.15059814	     -3.76582188	      7.44414358	      0.12992482	     29.48483171	      9.34322068	      0.00000000	      0.15863005	      0.74498628	      0.22838382	      0.29459187	      0.99083176	      0.24265781	      0.26061332	      1.81135965	      0.24265781	      0.18129829	      1.81135965	      0.19983584	      0.14730387	      1.51917603	      0.18556185	      0.09064121	      1.15398375	      0.17128786	      1.13307861	      8.42743383	      1.27020229	      0.00000000	      0.00000000	     23.44833854	    -11.96628460	     -2.89242202	      7.09151719	    -18.16447418	     60.11125843	     57.84287571	     68.21030543	      6.74650191	     14.10906719	     22.53410957	    -14.58799739	     88.88196588	     63.30447305	     24.97695497	    -22.19461057	     -4.86607909
